<mxfile host="65bd71144e">
    <diagram id="sU6Pt3tezfwikV1GZkMC" name="Overview">
        <mxGraphModel dx="714" dy="555" grid="1" gridSize="10" guides="1" tooltips="1" connect="1" arrows="1" fold="1" page="1" pageScale="1" pageWidth="1390" pageHeight="980" math="0" shadow="0">
            <root>
                <mxCell id="0"/>
                <mxCell id="1" parent="0"/>
                <mxCell id="2" value="Usecase" style="shape=umlFrame;whiteSpace=wrap;html=1;pointerEvents=0;recursiveResize=0;container=1;collapsible=0;width=160;" vertex="1" parent="1">
                    <mxGeometry x="180" y="230" width="480" height="460" as="geometry"/>
                </mxCell>
                <mxCell id="6" value="Register" style="ellipse;whiteSpace=wrap;html=1;" vertex="1" parent="2">
                    <mxGeometry x="40" y="50" width="140" height="50" as="geometry"/>
                </mxCell>
                <mxCell id="7" value="Login" style="ellipse;whiteSpace=wrap;html=1;" vertex="1" parent="2">
                    <mxGeometry x="170" y="210" width="140" height="50" as="geometry"/>
                </mxCell>
                <mxCell id="8" value="Logout" style="ellipse;whiteSpace=wrap;html=1;" vertex="1" parent="2">
                    <mxGeometry x="40" y="130" width="140" height="50" as="geometry"/>
                </mxCell>
                <mxCell id="9" value="Source Management" style="ellipse;whiteSpace=wrap;html=1;" vertex="1" parent="2">
                    <mxGeometry x="170" y="300" width="140" height="50" as="geometry"/>
                </mxCell>
                <mxCell id="10" value="Chart Management" style="ellipse;whiteSpace=wrap;html=1;" vertex="1" parent="2">
                    <mxGeometry x="260" y="380" width="140" height="50" as="geometry"/>
                </mxCell>
                <mxCell id="20" value="&amp;lt;&amp;lt;include&amp;gt;&amp;gt;" style="endArrow=open;startArrow=none;endFill=0;startFill=0;endSize=8;html=1;verticalAlign=bottom;dashed=1;labelBackgroundColor=none;entryX=0;entryY=0;entryDx=0;entryDy=0;exitX=0.5;exitY=1;exitDx=0;exitDy=0;" edge="1" parent="2" source="8" target="7">
                    <mxGeometry width="160" relative="1" as="geometry">
                        <mxPoint x="20" y="280" as="sourcePoint"/>
                        <mxPoint x="180" y="280" as="targetPoint"/>
                    </mxGeometry>
                </mxCell>
                <mxCell id="21" value="&amp;lt;&amp;lt;include&amp;gt;&amp;gt;" style="endArrow=open;startArrow=none;endFill=0;startFill=0;endSize=8;html=1;verticalAlign=bottom;dashed=1;labelBackgroundColor=none;entryX=0.5;entryY=1;entryDx=0;entryDy=0;exitX=0.5;exitY=0;exitDx=0;exitDy=0;" edge="1" parent="2" source="9" target="7">
                    <mxGeometry width="160" relative="1" as="geometry">
                        <mxPoint x="190" y="270" as="sourcePoint"/>
                        <mxPoint x="180" y="230" as="targetPoint"/>
                    </mxGeometry>
                </mxCell>
                <mxCell id="22" value="&amp;lt;&amp;lt;include&amp;gt;&amp;gt;" style="endArrow=open;startArrow=none;endFill=0;startFill=0;endSize=8;html=1;verticalAlign=bottom;dashed=1;labelBackgroundColor=none;entryX=1;entryY=1;entryDx=0;entryDy=0;exitX=1;exitY=0;exitDx=0;exitDy=0;" edge="1" parent="2" source="10" target="7">
                    <mxGeometry width="160" relative="1" as="geometry">
                        <mxPoint x="180" y="340" as="sourcePoint"/>
                        <mxPoint x="180" y="230" as="targetPoint"/>
                    </mxGeometry>
                </mxCell>
                <mxCell id="12" value="User Management" style="ellipse;whiteSpace=wrap;html=1;" vertex="1" parent="2">
                    <mxGeometry x="300" y="50" width="140" height="50" as="geometry"/>
                </mxCell>
                <mxCell id="30" value="&amp;lt;&amp;lt;include&amp;gt;&amp;gt;" style="endArrow=open;startArrow=none;endFill=0;startFill=0;endSize=8;html=1;verticalAlign=bottom;dashed=1;labelBackgroundColor=none;entryX=1;entryY=0;entryDx=0;entryDy=0;exitX=0.5;exitY=1;exitDx=0;exitDy=0;" edge="1" parent="2" source="12" target="7">
                    <mxGeometry width="160" relative="1" as="geometry">
                        <mxPoint x="249" y="417" as="sourcePoint"/>
                        <mxPoint x="229" y="223" as="targetPoint"/>
                    </mxGeometry>
                </mxCell>
                <mxCell id="11" value="Report Management" style="ellipse;whiteSpace=wrap;html=1;" vertex="1" parent="2">
                    <mxGeometry x="80" y="380" width="140" height="50" as="geometry"/>
                </mxCell>
                <mxCell id="23" value="&amp;lt;&amp;lt;include&amp;gt;&amp;gt;" style="endArrow=open;startArrow=none;endFill=0;startFill=0;endSize=8;html=1;verticalAlign=bottom;dashed=1;labelBackgroundColor=none;entryX=0;entryY=1;entryDx=0;entryDy=0;exitX=0;exitY=0;exitDx=0;exitDy=0;" edge="1" parent="2" source="11" target="7">
                    <mxGeometry width="160" relative="1" as="geometry">
                        <mxPoint x="249" y="417" as="sourcePoint"/>
                        <mxPoint x="229" y="223" as="targetPoint"/>
                    </mxGeometry>
                </mxCell>
                <mxCell id="3" value="User" style="shape=umlActor;verticalLabelPosition=bottom;verticalAlign=top;html=1;" vertex="1" parent="1">
                    <mxGeometry x="40" y="390" width="30" height="60" as="geometry"/>
                </mxCell>
                <mxCell id="4" value="Admin" style="shape=umlActor;verticalLabelPosition=bottom;verticalAlign=top;html=1;" vertex="1" parent="1">
                    <mxGeometry x="770" y="420" width="30" height="60" as="geometry"/>
                </mxCell>
                <mxCell id="14" value="" style="endArrow=none;html=1;exitX=1;exitY=0.3333333333333333;exitDx=0;exitDy=0;exitPerimeter=0;entryX=0;entryY=0.5;entryDx=0;entryDy=0;" edge="1" parent="1" source="3" target="6">
                    <mxGeometry width="50" height="50" relative="1" as="geometry">
                        <mxPoint x="230" y="530" as="sourcePoint"/>
                        <mxPoint x="280" y="480" as="targetPoint"/>
                    </mxGeometry>
                </mxCell>
                <mxCell id="15" value="" style="endArrow=none;html=1;exitX=1;exitY=0.3333333333333333;exitDx=0;exitDy=0;exitPerimeter=0;entryX=0;entryY=0.5;entryDx=0;entryDy=0;" edge="1" parent="1" source="3" target="7">
                    <mxGeometry width="50" height="50" relative="1" as="geometry">
                        <mxPoint x="105" y="430" as="sourcePoint"/>
                        <mxPoint x="310" y="315" as="targetPoint"/>
                    </mxGeometry>
                </mxCell>
                <mxCell id="16" value="" style="endArrow=none;html=1;exitX=1;exitY=0.3333333333333333;exitDx=0;exitDy=0;exitPerimeter=0;entryX=0;entryY=0.5;entryDx=0;entryDy=0;" edge="1" parent="1" source="3" target="8">
                    <mxGeometry width="50" height="50" relative="1" as="geometry">
                        <mxPoint x="120" y="420" as="sourcePoint"/>
                        <mxPoint x="270" y="435" as="targetPoint"/>
                    </mxGeometry>
                </mxCell>
                <mxCell id="17" value="" style="endArrow=none;html=1;exitX=1;exitY=0.3333333333333333;exitDx=0;exitDy=0;exitPerimeter=0;entryX=0;entryY=0.5;entryDx=0;entryDy=0;" edge="1" parent="1" source="3" target="9">
                    <mxGeometry width="50" height="50" relative="1" as="geometry">
                        <mxPoint x="120" y="420" as="sourcePoint"/>
                        <mxPoint x="280" y="525" as="targetPoint"/>
                    </mxGeometry>
                </mxCell>
                <mxCell id="18" value="" style="endArrow=none;html=1;exitX=1;exitY=0.3333333333333333;exitDx=0;exitDy=0;exitPerimeter=0;entryX=0;entryY=0.5;entryDx=0;entryDy=0;" edge="1" parent="1" source="3" target="10">
                    <mxGeometry width="50" height="50" relative="1" as="geometry">
                        <mxPoint x="120" y="420" as="sourcePoint"/>
                        <mxPoint x="260" y="595" as="targetPoint"/>
                    </mxGeometry>
                </mxCell>
                <mxCell id="19" value="" style="endArrow=none;html=1;exitX=1;exitY=0.3333333333333333;exitDx=0;exitDy=0;exitPerimeter=0;entryX=0;entryY=0.5;entryDx=0;entryDy=0;" edge="1" parent="1" source="3" target="11">
                    <mxGeometry width="50" height="50" relative="1" as="geometry">
                        <mxPoint x="120" y="420" as="sourcePoint"/>
                        <mxPoint x="290" y="665" as="targetPoint"/>
                    </mxGeometry>
                </mxCell>
                <mxCell id="25" value="" style="endArrow=none;html=1;exitX=0;exitY=0.3333333333333333;exitDx=0;exitDy=0;exitPerimeter=0;entryX=1;entryY=0.5;entryDx=0;entryDy=0;" edge="1" parent="1" source="4" target="7">
                    <mxGeometry width="50" height="50" relative="1" as="geometry">
                        <mxPoint x="630" y="420" as="sourcePoint"/>
                        <mxPoint x="450" y="315" as="targetPoint"/>
                    </mxGeometry>
                </mxCell>
                <mxCell id="26" value="" style="endArrow=none;html=1;exitX=0;exitY=0.3333333333333333;exitDx=0;exitDy=0;exitPerimeter=0;entryX=1;entryY=0.5;entryDx=0;entryDy=0;" edge="1" parent="1" source="4" target="8">
                    <mxGeometry width="50" height="50" relative="1" as="geometry">
                        <mxPoint x="630" y="420" as="sourcePoint"/>
                        <mxPoint x="410" y="435" as="targetPoint"/>
                    </mxGeometry>
                </mxCell>
                <mxCell id="27" value="" style="endArrow=none;html=1;exitX=0;exitY=0.3333333333333333;exitDx=0;exitDy=0;exitPerimeter=0;entryX=1;entryY=0.5;entryDx=0;entryDy=0;" edge="1" parent="1" source="4" target="9">
                    <mxGeometry width="50" height="50" relative="1" as="geometry">
                        <mxPoint x="630" y="420" as="sourcePoint"/>
                        <mxPoint x="420" y="525" as="targetPoint"/>
                    </mxGeometry>
                </mxCell>
                <mxCell id="28" value="" style="endArrow=none;html=1;exitX=0;exitY=0.3333333333333333;exitDx=0;exitDy=0;exitPerimeter=0;entryX=1;entryY=0.5;entryDx=0;entryDy=0;" edge="1" parent="1" source="4" target="10">
                    <mxGeometry width="50" height="50" relative="1" as="geometry">
                        <mxPoint x="630" y="420" as="sourcePoint"/>
                        <mxPoint x="410" y="595" as="targetPoint"/>
                    </mxGeometry>
                </mxCell>
                <mxCell id="29" value="" style="endArrow=none;html=1;exitX=0;exitY=0.3333333333333333;exitDx=0;exitDy=0;exitPerimeter=0;entryX=1;entryY=0.5;entryDx=0;entryDy=0;" edge="1" parent="1" source="4" target="11">
                    <mxGeometry width="50" height="50" relative="1" as="geometry">
                        <mxPoint x="630" y="420" as="sourcePoint"/>
                        <mxPoint x="430" y="665" as="targetPoint"/>
                    </mxGeometry>
                </mxCell>
                <mxCell id="31" value="" style="endArrow=none;html=1;exitX=0;exitY=0.3333333333333333;exitDx=0;exitDy=0;exitPerimeter=0;entryX=1;entryY=0.5;entryDx=0;entryDy=0;" edge="1" parent="1" source="4" target="12">
                    <mxGeometry width="50" height="50" relative="1" as="geometry">
                        <mxPoint x="630" y="420" as="sourcePoint"/>
                        <mxPoint x="360" y="755" as="targetPoint"/>
                    </mxGeometry>
                </mxCell>
            </root>
        </mxGraphModel>
    </diagram>
    <diagram id="dG93bUBmcP2-p2FRvY3k" name="UC_Register">
        <mxGraphModel dx="714" dy="555" grid="1" gridSize="10" guides="1" tooltips="1" connect="1" arrows="1" fold="1" page="1" pageScale="1" pageWidth="1390" pageHeight="980" math="0" shadow="0">
            <root>
                <mxCell id="0"/>
                <mxCell id="1" parent="0"/>
                <mxCell id="XXafdrMZwifYTbsBO1JK-1" value="Usecase: Register" style="shape=umlFrame;whiteSpace=wrap;html=1;pointerEvents=0;recursiveResize=0;container=1;collapsible=0;width=160;" vertex="1" parent="1">
                    <mxGeometry x="180" y="160" width="460" height="250" as="geometry"/>
                </mxCell>
                <mxCell id="XXafdrMZwifYTbsBO1JK-2" value="Register" style="ellipse;whiteSpace=wrap;html=1;" vertex="1" parent="XXafdrMZwifYTbsBO1JK-1">
                    <mxGeometry x="50" y="100" width="140" height="50" as="geometry"/>
                </mxCell>
                <mxCell id="XXafdrMZwifYTbsBO1JK-4" value="Register with Email" style="ellipse;whiteSpace=wrap;html=1;" vertex="1" parent="XXafdrMZwifYTbsBO1JK-1">
                    <mxGeometry x="240" y="40" width="140" height="50" as="geometry"/>
                </mxCell>
                <mxCell id="XXafdrMZwifYTbsBO1JK-28" value="Register with Google" style="ellipse;whiteSpace=wrap;html=1;" vertex="1" parent="XXafdrMZwifYTbsBO1JK-1">
                    <mxGeometry x="240" y="160" width="140" height="50" as="geometry"/>
                </mxCell>
                <mxCell id="XXafdrMZwifYTbsBO1JK-29" value="" style="edgeStyle=none;html=1;endSize=12;endArrow=block;endFill=0;entryX=1;entryY=0;entryDx=0;entryDy=0;exitX=0;exitY=0.5;exitDx=0;exitDy=0;" edge="1" parent="XXafdrMZwifYTbsBO1JK-1" source="XXafdrMZwifYTbsBO1JK-4" target="XXafdrMZwifYTbsBO1JK-2">
                    <mxGeometry width="160" relative="1" as="geometry">
                        <mxPoint x="50" y="160" as="sourcePoint"/>
                        <mxPoint x="210" y="160" as="targetPoint"/>
                    </mxGeometry>
                </mxCell>
                <mxCell id="XXafdrMZwifYTbsBO1JK-30" value="" style="edgeStyle=none;html=1;endSize=12;endArrow=block;endFill=0;entryX=1;entryY=1;entryDx=0;entryDy=0;exitX=0;exitY=0.5;exitDx=0;exitDy=0;" edge="1" parent="XXafdrMZwifYTbsBO1JK-1" source="XXafdrMZwifYTbsBO1JK-28" target="XXafdrMZwifYTbsBO1JK-2">
                    <mxGeometry width="160" relative="1" as="geometry">
                        <mxPoint x="250" y="45" as="sourcePoint"/>
                        <mxPoint x="179" y="87" as="targetPoint"/>
                    </mxGeometry>
                </mxCell>
                <mxCell id="XXafdrMZwifYTbsBO1JK-14" value="User" style="shape=umlActor;verticalLabelPosition=bottom;verticalAlign=top;html=1;" vertex="1" parent="1">
                    <mxGeometry x="110" y="270" width="30" height="60" as="geometry"/>
                </mxCell>
                <mxCell id="XXafdrMZwifYTbsBO1JK-16" value="" style="endArrow=none;html=1;exitX=1;exitY=0.3333333333333333;exitDx=0;exitDy=0;exitPerimeter=0;entryX=0;entryY=0.5;entryDx=0;entryDy=0;" edge="1" parent="1" source="XXafdrMZwifYTbsBO1JK-14" target="XXafdrMZwifYTbsBO1JK-2">
                    <mxGeometry width="50" height="50" relative="1" as="geometry">
                        <mxPoint x="230" y="530" as="sourcePoint"/>
                        <mxPoint x="280" y="480" as="targetPoint"/>
                    </mxGeometry>
                </mxCell>
            </root>
        </mxGraphModel>
    </diagram>
    <diagram name="UC_Login" id="897gwKZIImiiu79OyOoU">
        <mxGraphModel dx="714" dy="555" grid="1" gridSize="10" guides="1" tooltips="1" connect="1" arrows="1" fold="1" page="1" pageScale="1" pageWidth="1390" pageHeight="980" math="0" shadow="0">
            <root>
                <mxCell id="FS0bjTqz8QScu39Hi-R2-0"/>
                <mxCell id="FS0bjTqz8QScu39Hi-R2-1" parent="FS0bjTqz8QScu39Hi-R2-0"/>
                <mxCell id="FS0bjTqz8QScu39Hi-R2-2" value="Usecase: Login" style="shape=umlFrame;whiteSpace=wrap;html=1;pointerEvents=0;recursiveResize=0;container=1;collapsible=0;width=160;" vertex="1" parent="FS0bjTqz8QScu39Hi-R2-1">
                    <mxGeometry x="180" y="160" width="560" height="250" as="geometry"/>
                </mxCell>
                <mxCell id="FS0bjTqz8QScu39Hi-R2-3" value="Login" style="ellipse;whiteSpace=wrap;html=1;" vertex="1" parent="FS0bjTqz8QScu39Hi-R2-2">
                    <mxGeometry x="50" y="100" width="140" height="50" as="geometry"/>
                </mxCell>
                <mxCell id="FS0bjTqz8QScu39Hi-R2-4" value="Login with Email" style="ellipse;whiteSpace=wrap;html=1;" vertex="1" parent="FS0bjTqz8QScu39Hi-R2-2">
                    <mxGeometry x="210" y="40" width="140" height="50" as="geometry"/>
                </mxCell>
                <mxCell id="FS0bjTqz8QScu39Hi-R2-5" value="Login with Google" style="ellipse;whiteSpace=wrap;html=1;" vertex="1" parent="FS0bjTqz8QScu39Hi-R2-2">
                    <mxGeometry x="210" y="160" width="140" height="50" as="geometry"/>
                </mxCell>
                <mxCell id="FS0bjTqz8QScu39Hi-R2-6" value="" style="edgeStyle=none;html=1;endSize=12;endArrow=block;endFill=0;entryX=1;entryY=0;entryDx=0;entryDy=0;exitX=0;exitY=0.5;exitDx=0;exitDy=0;" edge="1" parent="FS0bjTqz8QScu39Hi-R2-2" source="FS0bjTqz8QScu39Hi-R2-4" target="FS0bjTqz8QScu39Hi-R2-3">
                    <mxGeometry width="160" relative="1" as="geometry">
                        <mxPoint x="50" y="160" as="sourcePoint"/>
                        <mxPoint x="210" y="160" as="targetPoint"/>
                    </mxGeometry>
                </mxCell>
                <mxCell id="FS0bjTqz8QScu39Hi-R2-7" value="" style="edgeStyle=none;html=1;endSize=12;endArrow=block;endFill=0;entryX=1;entryY=1;entryDx=0;entryDy=0;exitX=0;exitY=0.5;exitDx=0;exitDy=0;" edge="1" parent="FS0bjTqz8QScu39Hi-R2-2" source="FS0bjTqz8QScu39Hi-R2-5" target="FS0bjTqz8QScu39Hi-R2-3">
                    <mxGeometry width="160" relative="1" as="geometry">
                        <mxPoint x="250" y="45" as="sourcePoint"/>
                        <mxPoint x="179" y="87" as="targetPoint"/>
                    </mxGeometry>
                </mxCell>
                <mxCell id="dUcvXI2xOjURK1y6oa6s-2" value="Forgot Password" style="ellipse;whiteSpace=wrap;html=1;" vertex="1" parent="FS0bjTqz8QScu39Hi-R2-2">
                    <mxGeometry x="400" y="100" width="140" height="50" as="geometry"/>
                </mxCell>
                <mxCell id="dqlYp1mO64jfLfw3yjVG-0" value="&amp;lt;&amp;lt;extends&amp;gt;&amp;gt;" style="endArrow=open;startArrow=none;endFill=0;startFill=0;endSize=8;html=1;verticalAlign=bottom;dashed=1;labelBackgroundColor=none;entryX=1;entryY=0.5;entryDx=0;entryDy=0;exitX=0;exitY=0.5;exitDx=0;exitDy=0;" edge="1" parent="FS0bjTqz8QScu39Hi-R2-2" source="dUcvXI2xOjURK1y6oa6s-2" target="FS0bjTqz8QScu39Hi-R2-4">
                    <mxGeometry width="160" relative="1" as="geometry">
                        <mxPoint x="370" y="170" as="sourcePoint"/>
                        <mxPoint x="289" y="287" as="targetPoint"/>
                    </mxGeometry>
                </mxCell>
                <mxCell id="FS0bjTqz8QScu39Hi-R2-8" value="User" style="shape=umlActor;verticalLabelPosition=bottom;verticalAlign=top;html=1;" vertex="1" parent="FS0bjTqz8QScu39Hi-R2-1">
                    <mxGeometry x="100" y="180" width="30" height="60" as="geometry"/>
                </mxCell>
                <mxCell id="FS0bjTqz8QScu39Hi-R2-9" value="" style="endArrow=none;html=1;exitX=1;exitY=0.3333333333333333;exitDx=0;exitDy=0;exitPerimeter=0;entryX=0;entryY=0;entryDx=0;entryDy=0;" edge="1" parent="FS0bjTqz8QScu39Hi-R2-1" source="FS0bjTqz8QScu39Hi-R2-8" target="FS0bjTqz8QScu39Hi-R2-3">
                    <mxGeometry width="50" height="50" relative="1" as="geometry">
                        <mxPoint x="230" y="530" as="sourcePoint"/>
                        <mxPoint x="280" y="480" as="targetPoint"/>
                    </mxGeometry>
                </mxCell>
                <mxCell id="dUcvXI2xOjURK1y6oa6s-0" value="Admin" style="shape=umlActor;verticalLabelPosition=bottom;verticalAlign=top;html=1;" vertex="1" parent="FS0bjTqz8QScu39Hi-R2-1">
                    <mxGeometry x="100" y="340" width="30" height="60" as="geometry"/>
                </mxCell>
                <mxCell id="dUcvXI2xOjURK1y6oa6s-1" value="" style="endArrow=none;html=1;exitX=1;exitY=0.3333333333333333;exitDx=0;exitDy=0;exitPerimeter=0;entryX=0;entryY=1;entryDx=0;entryDy=0;" edge="1" parent="FS0bjTqz8QScu39Hi-R2-1" source="dUcvXI2xOjURK1y6oa6s-0" target="FS0bjTqz8QScu39Hi-R2-3">
                    <mxGeometry width="50" height="50" relative="1" as="geometry">
                        <mxPoint x="140" y="210" as="sourcePoint"/>
                        <mxPoint x="261" y="277" as="targetPoint"/>
                    </mxGeometry>
                </mxCell>
            </root>
        </mxGraphModel>
    </diagram>
    <diagram name="UC_Source_Management" id="_CnIX2dPCCI207zLnnwb">
        <mxGraphModel dx="714" dy="555" grid="1" gridSize="10" guides="1" tooltips="1" connect="1" arrows="1" fold="1" page="1" pageScale="1" pageWidth="1390" pageHeight="980" math="0" shadow="0">
            <root>
                <mxCell id="tUCsQgeUB9xz6ND2Wm-M-0"/>
                <mxCell id="tUCsQgeUB9xz6ND2Wm-M-1" parent="tUCsQgeUB9xz6ND2Wm-M-0"/>
                <mxCell id="tUCsQgeUB9xz6ND2Wm-M-2" value="Usecase: Source Management" style="shape=umlFrame;whiteSpace=wrap;html=1;pointerEvents=0;recursiveResize=0;container=1;collapsible=0;width=160;" vertex="1" parent="tUCsQgeUB9xz6ND2Wm-M-1">
                    <mxGeometry x="160" y="160" width="560" height="300" as="geometry"/>
                </mxCell>
                <mxCell id="tUCsQgeUB9xz6ND2Wm-M-3" value="Source Management" style="ellipse;whiteSpace=wrap;html=1;" vertex="1" parent="tUCsQgeUB9xz6ND2Wm-M-2">
                    <mxGeometry x="20" y="100" width="140" height="50" as="geometry"/>
                </mxCell>
                <mxCell id="tUCsQgeUB9xz6ND2Wm-M-4" value="Create source" style="ellipse;whiteSpace=wrap;html=1;" vertex="1" parent="tUCsQgeUB9xz6ND2Wm-M-2">
                    <mxGeometry x="220" y="20" width="140" height="50" as="geometry"/>
                </mxCell>
                <mxCell id="tUCsQgeUB9xz6ND2Wm-M-5" value="Create source by source" style="ellipse;whiteSpace=wrap;html=1;" vertex="1" parent="tUCsQgeUB9xz6ND2Wm-M-2">
                    <mxGeometry x="400" y="20" width="140" height="50" as="geometry"/>
                </mxCell>
                <mxCell id="tUCsQgeUB9xz6ND2Wm-M-7" value="" style="edgeStyle=none;html=1;endSize=12;endArrow=block;endFill=0;entryX=1;entryY=0.5;entryDx=0;entryDy=0;exitX=0;exitY=0.5;exitDx=0;exitDy=0;" edge="1" parent="tUCsQgeUB9xz6ND2Wm-M-2" source="tUCsQgeUB9xz6ND2Wm-M-5" target="tUCsQgeUB9xz6ND2Wm-M-4">
                    <mxGeometry width="160" relative="1" as="geometry">
                        <mxPoint x="250" y="45" as="sourcePoint"/>
                        <mxPoint x="179" y="87" as="targetPoint"/>
                    </mxGeometry>
                </mxCell>
                <mxCell id="fxK_DIqiEnIZc2duD1iK-0" value="&amp;lt;&amp;lt;extends&amp;gt;&amp;gt;" style="endArrow=open;startArrow=none;endFill=0;startFill=0;endSize=8;html=1;verticalAlign=bottom;dashed=1;labelBackgroundColor=none;entryX=1;entryY=0;entryDx=0;entryDy=0;exitX=0;exitY=0.5;exitDx=0;exitDy=0;" edge="1" parent="tUCsQgeUB9xz6ND2Wm-M-2" source="tUCsQgeUB9xz6ND2Wm-M-4" target="tUCsQgeUB9xz6ND2Wm-M-3">
                    <mxGeometry width="160" relative="1" as="geometry">
                        <mxPoint x="410" y="135" as="sourcePoint"/>
                        <mxPoint x="360" y="75" as="targetPoint"/>
                    </mxGeometry>
                </mxCell>
                <mxCell id="fxK_DIqiEnIZc2duD1iK-1" value="Search source" style="ellipse;whiteSpace=wrap;html=1;" vertex="1" parent="tUCsQgeUB9xz6ND2Wm-M-2">
                    <mxGeometry x="220" y="90" width="140" height="50" as="geometry"/>
                </mxCell>
                <mxCell id="fxK_DIqiEnIZc2duD1iK-2" value="Delete source" style="ellipse;whiteSpace=wrap;html=1;" vertex="1" parent="tUCsQgeUB9xz6ND2Wm-M-2">
                    <mxGeometry x="220" y="160" width="140" height="50" as="geometry"/>
                </mxCell>
                <mxCell id="fxK_DIqiEnIZc2duD1iK-4" value="Share source" style="ellipse;whiteSpace=wrap;html=1;" vertex="1" parent="tUCsQgeUB9xz6ND2Wm-M-2">
                    <mxGeometry x="220" y="230" width="140" height="50" as="geometry"/>
                </mxCell>
                <mxCell id="fxK_DIqiEnIZc2duD1iK-5" value="Create source by connector" style="ellipse;whiteSpace=wrap;html=1;" vertex="1" parent="tUCsQgeUB9xz6ND2Wm-M-2">
                    <mxGeometry x="400" y="90" width="140" height="50" as="geometry"/>
                </mxCell>
                <mxCell id="fxK_DIqiEnIZc2duD1iK-6" value="" style="edgeStyle=none;html=1;endSize=12;endArrow=block;endFill=0;entryX=1;entryY=1;entryDx=0;entryDy=0;exitX=0;exitY=0.5;exitDx=0;exitDy=0;" edge="1" parent="tUCsQgeUB9xz6ND2Wm-M-2" source="fxK_DIqiEnIZc2duD1iK-5" target="tUCsQgeUB9xz6ND2Wm-M-4">
                    <mxGeometry width="160" relative="1" as="geometry">
                        <mxPoint x="410" y="55" as="sourcePoint"/>
                        <mxPoint x="370" y="55" as="targetPoint"/>
                    </mxGeometry>
                </mxCell>
                <mxCell id="fxK_DIqiEnIZc2duD1iK-7" value="&amp;lt;&amp;lt;extends&amp;gt;&amp;gt;" style="endArrow=open;startArrow=none;endFill=0;startFill=0;endSize=8;html=1;verticalAlign=bottom;dashed=1;labelBackgroundColor=none;entryX=1;entryY=0.5;entryDx=0;entryDy=0;exitX=0;exitY=0.5;exitDx=0;exitDy=0;" edge="1" parent="tUCsQgeUB9xz6ND2Wm-M-2" source="fxK_DIqiEnIZc2duD1iK-1" target="tUCsQgeUB9xz6ND2Wm-M-3">
                    <mxGeometry width="160" relative="1" as="geometry">
                        <mxPoint x="230" y="55" as="sourcePoint"/>
                        <mxPoint x="149" y="117" as="targetPoint"/>
                    </mxGeometry>
                </mxCell>
                <mxCell id="fxK_DIqiEnIZc2duD1iK-8" value="&amp;lt;&amp;lt;extends&amp;gt;&amp;gt;" style="endArrow=open;startArrow=none;endFill=0;startFill=0;endSize=8;html=1;verticalAlign=bottom;dashed=1;labelBackgroundColor=none;entryX=1;entryY=1;entryDx=0;entryDy=0;exitX=0;exitY=0.5;exitDx=0;exitDy=0;" edge="1" parent="tUCsQgeUB9xz6ND2Wm-M-2" source="fxK_DIqiEnIZc2duD1iK-2" target="tUCsQgeUB9xz6ND2Wm-M-3">
                    <mxGeometry width="160" relative="1" as="geometry">
                        <mxPoint x="230" y="125" as="sourcePoint"/>
                        <mxPoint x="170" y="135" as="targetPoint"/>
                    </mxGeometry>
                </mxCell>
                <mxCell id="fxK_DIqiEnIZc2duD1iK-9" value="&amp;lt;&amp;lt;extends&amp;gt;&amp;gt;" style="endArrow=open;startArrow=none;endFill=0;startFill=0;endSize=8;html=1;verticalAlign=bottom;dashed=1;labelBackgroundColor=none;entryX=0.5;entryY=1;entryDx=0;entryDy=0;exitX=0;exitY=0.5;exitDx=0;exitDy=0;" edge="1" parent="tUCsQgeUB9xz6ND2Wm-M-2" source="fxK_DIqiEnIZc2duD1iK-4" target="tUCsQgeUB9xz6ND2Wm-M-3">
                    <mxGeometry width="160" relative="1" as="geometry">
                        <mxPoint x="230" y="195" as="sourcePoint"/>
                        <mxPoint x="149" y="153" as="targetPoint"/>
                    </mxGeometry>
                </mxCell>
                <mxCell id="tUCsQgeUB9xz6ND2Wm-M-10" value="User" style="shape=umlActor;verticalLabelPosition=bottom;verticalAlign=top;html=1;" vertex="1" parent="tUCsQgeUB9xz6ND2Wm-M-1">
                    <mxGeometry x="100" y="180" width="30" height="60" as="geometry"/>
                </mxCell>
                <mxCell id="tUCsQgeUB9xz6ND2Wm-M-11" value="" style="endArrow=none;html=1;exitX=1;exitY=0.3333333333333333;exitDx=0;exitDy=0;exitPerimeter=0;entryX=0;entryY=0;entryDx=0;entryDy=0;" edge="1" parent="tUCsQgeUB9xz6ND2Wm-M-1" source="tUCsQgeUB9xz6ND2Wm-M-10" target="tUCsQgeUB9xz6ND2Wm-M-3">
                    <mxGeometry width="50" height="50" relative="1" as="geometry">
                        <mxPoint x="230" y="530" as="sourcePoint"/>
                        <mxPoint x="280" y="480" as="targetPoint"/>
                    </mxGeometry>
                </mxCell>
                <mxCell id="tUCsQgeUB9xz6ND2Wm-M-12" value="Admin" style="shape=umlActor;verticalLabelPosition=bottom;verticalAlign=top;html=1;" vertex="1" parent="tUCsQgeUB9xz6ND2Wm-M-1">
                    <mxGeometry x="100" y="340" width="30" height="60" as="geometry"/>
                </mxCell>
                <mxCell id="tUCsQgeUB9xz6ND2Wm-M-13" value="" style="endArrow=none;html=1;exitX=1;exitY=0.3333333333333333;exitDx=0;exitDy=0;exitPerimeter=0;entryX=0;entryY=1;entryDx=0;entryDy=0;" edge="1" parent="tUCsQgeUB9xz6ND2Wm-M-1" source="tUCsQgeUB9xz6ND2Wm-M-12" target="tUCsQgeUB9xz6ND2Wm-M-3">
                    <mxGeometry width="50" height="50" relative="1" as="geometry">
                        <mxPoint x="140" y="210" as="sourcePoint"/>
                        <mxPoint x="261" y="277" as="targetPoint"/>
                    </mxGeometry>
                </mxCell>
            </root>
        </mxGraphModel>
    </diagram>
    <diagram name="UC_Chart_Management" id="TmizXDOBSqm2_Z2gMC3W">
        <mxGraphModel dx="714" dy="555" grid="1" gridSize="10" guides="1" tooltips="1" connect="1" arrows="1" fold="1" page="1" pageScale="1" pageWidth="1390" pageHeight="980" math="0" shadow="0">
            <root>
                <mxCell id="c4ekDHVQGbVm3V8xton0-0"/>
                <mxCell id="c4ekDHVQGbVm3V8xton0-1" parent="c4ekDHVQGbVm3V8xton0-0"/>
                <mxCell id="c4ekDHVQGbVm3V8xton0-2" value="Usecase: Chart Management" style="shape=umlFrame;whiteSpace=wrap;html=1;pointerEvents=0;recursiveResize=0;container=1;collapsible=0;width=160;" vertex="1" parent="c4ekDHVQGbVm3V8xton0-1">
                    <mxGeometry x="160" y="160" width="560" height="300" as="geometry"/>
                </mxCell>
                <mxCell id="c4ekDHVQGbVm3V8xton0-3" value="Chart&lt;span style=&quot;background-color: transparent;&quot;&gt;&amp;nbsp;Management&lt;/span&gt;" style="ellipse;whiteSpace=wrap;html=1;" vertex="1" parent="c4ekDHVQGbVm3V8xton0-2">
                    <mxGeometry x="20" y="100" width="140" height="50" as="geometry"/>
                </mxCell>
                <mxCell id="c4ekDHVQGbVm3V8xton0-4" value="Create chart" style="ellipse;whiteSpace=wrap;html=1;" vertex="1" parent="c4ekDHVQGbVm3V8xton0-2">
                    <mxGeometry x="220" y="20" width="140" height="50" as="geometry"/>
                </mxCell>
                <mxCell id="c4ekDHVQGbVm3V8xton0-7" value="&amp;lt;&amp;lt;extends&amp;gt;&amp;gt;" style="endArrow=open;startArrow=none;endFill=0;startFill=0;endSize=8;html=1;verticalAlign=bottom;dashed=1;labelBackgroundColor=none;entryX=1;entryY=0;entryDx=0;entryDy=0;exitX=0;exitY=0.5;exitDx=0;exitDy=0;" edge="1" parent="c4ekDHVQGbVm3V8xton0-2" source="c4ekDHVQGbVm3V8xton0-4" target="c4ekDHVQGbVm3V8xton0-3">
                    <mxGeometry width="160" relative="1" as="geometry">
                        <mxPoint x="410" y="135" as="sourcePoint"/>
                        <mxPoint x="360" y="75" as="targetPoint"/>
                    </mxGeometry>
                </mxCell>
                <mxCell id="c4ekDHVQGbVm3V8xton0-8" value="Add chart to Report" style="ellipse;whiteSpace=wrap;html=1;" vertex="1" parent="c4ekDHVQGbVm3V8xton0-2">
                    <mxGeometry x="220" y="90" width="140" height="50" as="geometry"/>
                </mxCell>
                <mxCell id="c4ekDHVQGbVm3V8xton0-9" value="Delete chart" style="ellipse;whiteSpace=wrap;html=1;" vertex="1" parent="c4ekDHVQGbVm3V8xton0-2">
                    <mxGeometry x="220" y="160" width="140" height="50" as="geometry"/>
                </mxCell>
                <mxCell id="c4ekDHVQGbVm3V8xton0-10" value="Share chart" style="ellipse;whiteSpace=wrap;html=1;" vertex="1" parent="c4ekDHVQGbVm3V8xton0-2">
                    <mxGeometry x="220" y="230" width="140" height="50" as="geometry"/>
                </mxCell>
                <mxCell id="c4ekDHVQGbVm3V8xton0-13" value="&amp;lt;&amp;lt;extends&amp;gt;&amp;gt;" style="endArrow=open;startArrow=none;endFill=0;startFill=0;endSize=8;html=1;verticalAlign=bottom;dashed=1;labelBackgroundColor=none;entryX=1;entryY=0.5;entryDx=0;entryDy=0;exitX=0;exitY=0.5;exitDx=0;exitDy=0;" edge="1" parent="c4ekDHVQGbVm3V8xton0-2" source="c4ekDHVQGbVm3V8xton0-8" target="c4ekDHVQGbVm3V8xton0-3">
                    <mxGeometry width="160" relative="1" as="geometry">
                        <mxPoint x="230" y="55" as="sourcePoint"/>
                        <mxPoint x="149" y="117" as="targetPoint"/>
                    </mxGeometry>
                </mxCell>
                <mxCell id="c4ekDHVQGbVm3V8xton0-14" value="&amp;lt;&amp;lt;extends&amp;gt;&amp;gt;" style="endArrow=open;startArrow=none;endFill=0;startFill=0;endSize=8;html=1;verticalAlign=bottom;dashed=1;labelBackgroundColor=none;entryX=1;entryY=1;entryDx=0;entryDy=0;exitX=0;exitY=0.5;exitDx=0;exitDy=0;" edge="1" parent="c4ekDHVQGbVm3V8xton0-2" source="c4ekDHVQGbVm3V8xton0-9" target="c4ekDHVQGbVm3V8xton0-3">
                    <mxGeometry width="160" relative="1" as="geometry">
                        <mxPoint x="230" y="125" as="sourcePoint"/>
                        <mxPoint x="170" y="135" as="targetPoint"/>
                    </mxGeometry>
                </mxCell>
                <mxCell id="c4ekDHVQGbVm3V8xton0-15" value="&amp;lt;&amp;lt;extends&amp;gt;&amp;gt;" style="endArrow=open;startArrow=none;endFill=0;startFill=0;endSize=8;html=1;verticalAlign=bottom;dashed=1;labelBackgroundColor=none;entryX=0.5;entryY=1;entryDx=0;entryDy=0;exitX=0;exitY=0.5;exitDx=0;exitDy=0;" edge="1" parent="c4ekDHVQGbVm3V8xton0-2" source="c4ekDHVQGbVm3V8xton0-10" target="c4ekDHVQGbVm3V8xton0-3">
                    <mxGeometry width="160" relative="1" as="geometry">
                        <mxPoint x="230" y="195" as="sourcePoint"/>
                        <mxPoint x="149" y="153" as="targetPoint"/>
                    </mxGeometry>
                </mxCell>
                <mxCell id="c4ekDHVQGbVm3V8xton0-16" value="User" style="shape=umlActor;verticalLabelPosition=bottom;verticalAlign=top;html=1;" vertex="1" parent="c4ekDHVQGbVm3V8xton0-1">
                    <mxGeometry x="100" y="180" width="30" height="60" as="geometry"/>
                </mxCell>
                <mxCell id="c4ekDHVQGbVm3V8xton0-17" value="" style="endArrow=none;html=1;exitX=1;exitY=0.3333333333333333;exitDx=0;exitDy=0;exitPerimeter=0;entryX=0;entryY=0;entryDx=0;entryDy=0;" edge="1" parent="c4ekDHVQGbVm3V8xton0-1" source="c4ekDHVQGbVm3V8xton0-16" target="c4ekDHVQGbVm3V8xton0-3">
                    <mxGeometry width="50" height="50" relative="1" as="geometry">
                        <mxPoint x="230" y="530" as="sourcePoint"/>
                        <mxPoint x="280" y="480" as="targetPoint"/>
                    </mxGeometry>
                </mxCell>
                <mxCell id="c4ekDHVQGbVm3V8xton0-18" value="Admin" style="shape=umlActor;verticalLabelPosition=bottom;verticalAlign=top;html=1;" vertex="1" parent="c4ekDHVQGbVm3V8xton0-1">
                    <mxGeometry x="100" y="340" width="30" height="60" as="geometry"/>
                </mxCell>
                <mxCell id="c4ekDHVQGbVm3V8xton0-19" value="" style="endArrow=none;html=1;exitX=1;exitY=0.3333333333333333;exitDx=0;exitDy=0;exitPerimeter=0;entryX=0;entryY=1;entryDx=0;entryDy=0;" edge="1" parent="c4ekDHVQGbVm3V8xton0-1" source="c4ekDHVQGbVm3V8xton0-18" target="c4ekDHVQGbVm3V8xton0-3">
                    <mxGeometry width="50" height="50" relative="1" as="geometry">
                        <mxPoint x="140" y="210" as="sourcePoint"/>
                        <mxPoint x="261" y="277" as="targetPoint"/>
                    </mxGeometry>
                </mxCell>
            </root>
        </mxGraphModel>
    </diagram>
    <diagram name="UC_Report_Management" id="8utETL3xLoZp9ef5saOI">
        <mxGraphModel dx="714" dy="555" grid="1" gridSize="10" guides="1" tooltips="1" connect="1" arrows="1" fold="1" page="1" pageScale="1" pageWidth="1390" pageHeight="980" math="0" shadow="0">
            <root>
                <mxCell id="fiqcy8F-fCQ0JziDmnSf-0"/>
                <mxCell id="fiqcy8F-fCQ0JziDmnSf-1" parent="fiqcy8F-fCQ0JziDmnSf-0"/>
                <mxCell id="fiqcy8F-fCQ0JziDmnSf-2" value="Usecase: Report Management" style="shape=umlFrame;whiteSpace=wrap;html=1;pointerEvents=0;recursiveResize=0;container=1;collapsible=0;width=160;" vertex="1" parent="fiqcy8F-fCQ0JziDmnSf-1">
                    <mxGeometry x="160" y="160" width="560" height="300" as="geometry"/>
                </mxCell>
                <mxCell id="fiqcy8F-fCQ0JziDmnSf-3" value="&lt;span style=&quot;background-color: transparent;&quot;&gt;&lt;font color=&quot;#000000&quot;&gt;Report&lt;/font&gt; Management&lt;/span&gt;" style="ellipse;whiteSpace=wrap;html=1;" vertex="1" parent="fiqcy8F-fCQ0JziDmnSf-2">
                    <mxGeometry x="20" y="100" width="140" height="50" as="geometry"/>
                </mxCell>
                <mxCell id="fiqcy8F-fCQ0JziDmnSf-4" value="Create report" style="ellipse;whiteSpace=wrap;html=1;" vertex="1" parent="fiqcy8F-fCQ0JziDmnSf-2">
                    <mxGeometry x="220" y="20" width="140" height="50" as="geometry"/>
                </mxCell>
                <mxCell id="fiqcy8F-fCQ0JziDmnSf-5" value="&amp;lt;&amp;lt;extends&amp;gt;&amp;gt;" style="endArrow=open;startArrow=none;endFill=0;startFill=0;endSize=8;html=1;verticalAlign=bottom;dashed=1;labelBackgroundColor=none;entryX=1;entryY=0;entryDx=0;entryDy=0;exitX=0;exitY=0.5;exitDx=0;exitDy=0;" edge="1" parent="fiqcy8F-fCQ0JziDmnSf-2" source="fiqcy8F-fCQ0JziDmnSf-4" target="fiqcy8F-fCQ0JziDmnSf-3">
                    <mxGeometry width="160" relative="1" as="geometry">
                        <mxPoint x="410" y="135" as="sourcePoint"/>
                        <mxPoint x="360" y="75" as="targetPoint"/>
                    </mxGeometry>
                </mxCell>
                <mxCell id="fiqcy8F-fCQ0JziDmnSf-6" value="Move report to folder" style="ellipse;whiteSpace=wrap;html=1;" vertex="1" parent="fiqcy8F-fCQ0JziDmnSf-2">
                    <mxGeometry x="220" y="90" width="140" height="50" as="geometry"/>
                </mxCell>
                <mxCell id="fiqcy8F-fCQ0JziDmnSf-7" value="Delete report" style="ellipse;whiteSpace=wrap;html=1;" vertex="1" parent="fiqcy8F-fCQ0JziDmnSf-2">
                    <mxGeometry x="220" y="160" width="140" height="50" as="geometry"/>
                </mxCell>
                <mxCell id="fiqcy8F-fCQ0JziDmnSf-8" value="Share report" style="ellipse;whiteSpace=wrap;html=1;" vertex="1" parent="fiqcy8F-fCQ0JziDmnSf-2">
                    <mxGeometry x="220" y="230" width="140" height="50" as="geometry"/>
                </mxCell>
                <mxCell id="fiqcy8F-fCQ0JziDmnSf-9" value="&amp;lt;&amp;lt;extends&amp;gt;&amp;gt;" style="endArrow=open;startArrow=none;endFill=0;startFill=0;endSize=8;html=1;verticalAlign=bottom;dashed=1;labelBackgroundColor=none;entryX=1;entryY=0.5;entryDx=0;entryDy=0;exitX=0;exitY=0.5;exitDx=0;exitDy=0;" edge="1" parent="fiqcy8F-fCQ0JziDmnSf-2" source="fiqcy8F-fCQ0JziDmnSf-6" target="fiqcy8F-fCQ0JziDmnSf-3">
                    <mxGeometry width="160" relative="1" as="geometry">
                        <mxPoint x="230" y="55" as="sourcePoint"/>
                        <mxPoint x="149" y="117" as="targetPoint"/>
                    </mxGeometry>
                </mxCell>
                <mxCell id="fiqcy8F-fCQ0JziDmnSf-10" value="&amp;lt;&amp;lt;extends&amp;gt;&amp;gt;" style="endArrow=open;startArrow=none;endFill=0;startFill=0;endSize=8;html=1;verticalAlign=bottom;dashed=1;labelBackgroundColor=none;entryX=1;entryY=1;entryDx=0;entryDy=0;exitX=0;exitY=0.5;exitDx=0;exitDy=0;" edge="1" parent="fiqcy8F-fCQ0JziDmnSf-2" source="fiqcy8F-fCQ0JziDmnSf-7" target="fiqcy8F-fCQ0JziDmnSf-3">
                    <mxGeometry width="160" relative="1" as="geometry">
                        <mxPoint x="230" y="125" as="sourcePoint"/>
                        <mxPoint x="170" y="135" as="targetPoint"/>
                    </mxGeometry>
                </mxCell>
                <mxCell id="fiqcy8F-fCQ0JziDmnSf-11" value="&amp;lt;&amp;lt;extends&amp;gt;&amp;gt;" style="endArrow=open;startArrow=none;endFill=0;startFill=0;endSize=8;html=1;verticalAlign=bottom;dashed=1;labelBackgroundColor=none;entryX=0.5;entryY=1;entryDx=0;entryDy=0;exitX=0;exitY=0.5;exitDx=0;exitDy=0;" edge="1" parent="fiqcy8F-fCQ0JziDmnSf-2" source="fiqcy8F-fCQ0JziDmnSf-8" target="fiqcy8F-fCQ0JziDmnSf-3">
                    <mxGeometry width="160" relative="1" as="geometry">
                        <mxPoint x="230" y="195" as="sourcePoint"/>
                        <mxPoint x="149" y="153" as="targetPoint"/>
                    </mxGeometry>
                </mxCell>
                <mxCell id="fiqcy8F-fCQ0JziDmnSf-12" value="User" style="shape=umlActor;verticalLabelPosition=bottom;verticalAlign=top;html=1;" vertex="1" parent="fiqcy8F-fCQ0JziDmnSf-1">
                    <mxGeometry x="100" y="180" width="30" height="60" as="geometry"/>
                </mxCell>
                <mxCell id="fiqcy8F-fCQ0JziDmnSf-13" value="" style="endArrow=none;html=1;exitX=1;exitY=0.3333333333333333;exitDx=0;exitDy=0;exitPerimeter=0;entryX=0;entryY=0;entryDx=0;entryDy=0;" edge="1" parent="fiqcy8F-fCQ0JziDmnSf-1" source="fiqcy8F-fCQ0JziDmnSf-12" target="fiqcy8F-fCQ0JziDmnSf-3">
                    <mxGeometry width="50" height="50" relative="1" as="geometry">
                        <mxPoint x="230" y="530" as="sourcePoint"/>
                        <mxPoint x="280" y="480" as="targetPoint"/>
                    </mxGeometry>
                </mxCell>
                <mxCell id="fiqcy8F-fCQ0JziDmnSf-14" value="Admin" style="shape=umlActor;verticalLabelPosition=bottom;verticalAlign=top;html=1;" vertex="1" parent="fiqcy8F-fCQ0JziDmnSf-1">
                    <mxGeometry x="100" y="340" width="30" height="60" as="geometry"/>
                </mxCell>
                <mxCell id="fiqcy8F-fCQ0JziDmnSf-15" value="" style="endArrow=none;html=1;exitX=1;exitY=0.3333333333333333;exitDx=0;exitDy=0;exitPerimeter=0;entryX=0;entryY=1;entryDx=0;entryDy=0;" edge="1" parent="fiqcy8F-fCQ0JziDmnSf-1" source="fiqcy8F-fCQ0JziDmnSf-14" target="fiqcy8F-fCQ0JziDmnSf-3">
                    <mxGeometry width="50" height="50" relative="1" as="geometry">
                        <mxPoint x="140" y="210" as="sourcePoint"/>
                        <mxPoint x="261" y="277" as="targetPoint"/>
                    </mxGeometry>
                </mxCell>
            </root>
        </mxGraphModel>
    </diagram>
    <diagram name="UC_User_Management" id="gX3YMibTQltLidDfgTJH">
        <mxGraphModel dx="714" dy="555" grid="1" gridSize="10" guides="1" tooltips="1" connect="1" arrows="1" fold="1" page="1" pageScale="1" pageWidth="1390" pageHeight="980" math="0" shadow="0">
            <root>
                <mxCell id="My4xN4KpQax5WSPuNWUK-0"/>
                <mxCell id="My4xN4KpQax5WSPuNWUK-1" parent="My4xN4KpQax5WSPuNWUK-0"/>
                <mxCell id="My4xN4KpQax5WSPuNWUK-2" value="Usecase: User Management" style="shape=umlFrame;whiteSpace=wrap;html=1;pointerEvents=0;recursiveResize=0;container=1;collapsible=0;width=160;" vertex="1" parent="My4xN4KpQax5WSPuNWUK-1">
                    <mxGeometry x="180" y="160" width="560" height="250" as="geometry"/>
                </mxCell>
                <mxCell id="My4xN4KpQax5WSPuNWUK-3" value="User Management" style="ellipse;whiteSpace=wrap;html=1;" vertex="1" parent="My4xN4KpQax5WSPuNWUK-2">
                    <mxGeometry x="50" y="100" width="140" height="50" as="geometry"/>
                </mxCell>
                <mxCell id="My4xN4KpQax5WSPuNWUK-4" value="Reject Account" style="ellipse;whiteSpace=wrap;html=1;" vertex="1" parent="My4xN4KpQax5WSPuNWUK-2">
                    <mxGeometry x="260" y="30" width="140" height="50" as="geometry"/>
                </mxCell>
                <mxCell id="My4xN4KpQax5WSPuNWUK-8" value="Authorization Account" style="ellipse;whiteSpace=wrap;html=1;" vertex="1" parent="My4xN4KpQax5WSPuNWUK-2">
                    <mxGeometry x="260" y="170" width="140" height="50" as="geometry"/>
                </mxCell>
                <mxCell id="ntPELXL4uaQqhGX2wjw4-0" value="&amp;lt;&amp;lt;extends&amp;gt;&amp;gt;" style="endArrow=open;startArrow=none;endFill=0;startFill=0;endSize=8;html=1;verticalAlign=bottom;dashed=1;labelBackgroundColor=none;entryX=1;entryY=0;entryDx=0;entryDy=0;exitX=0;exitY=0.5;exitDx=0;exitDy=0;" edge="1" parent="My4xN4KpQax5WSPuNWUK-2" source="My4xN4KpQax5WSPuNWUK-4" target="My4xN4KpQax5WSPuNWUK-3">
                    <mxGeometry width="160" relative="1" as="geometry">
                        <mxPoint x="400" y="125" as="sourcePoint"/>
                        <mxPoint x="350" y="65" as="targetPoint"/>
                    </mxGeometry>
                </mxCell>
                <mxCell id="ntPELXL4uaQqhGX2wjw4-1" value="&amp;lt;&amp;lt;extends&amp;gt;&amp;gt;" style="endArrow=open;startArrow=none;endFill=0;startFill=0;endSize=8;html=1;verticalAlign=bottom;dashed=1;labelBackgroundColor=none;entryX=1;entryY=1;entryDx=0;entryDy=0;exitX=0;exitY=0.5;exitDx=0;exitDy=0;" edge="1" parent="My4xN4KpQax5WSPuNWUK-2" source="My4xN4KpQax5WSPuNWUK-8" target="My4xN4KpQax5WSPuNWUK-3">
                    <mxGeometry width="160" relative="1" as="geometry">
                        <mxPoint x="270" y="65" as="sourcePoint"/>
                        <mxPoint x="179" y="117" as="targetPoint"/>
                    </mxGeometry>
                </mxCell>
                <mxCell id="My4xN4KpQax5WSPuNWUK-10" value="User" style="shape=umlActor;verticalLabelPosition=bottom;verticalAlign=top;html=1;" vertex="1" parent="My4xN4KpQax5WSPuNWUK-1">
                    <mxGeometry x="100" y="180" width="30" height="60" as="geometry"/>
                </mxCell>
                <mxCell id="My4xN4KpQax5WSPuNWUK-11" value="" style="endArrow=none;html=1;exitX=1;exitY=0.3333333333333333;exitDx=0;exitDy=0;exitPerimeter=0;entryX=0;entryY=0;entryDx=0;entryDy=0;" edge="1" parent="My4xN4KpQax5WSPuNWUK-1" source="My4xN4KpQax5WSPuNWUK-10" target="My4xN4KpQax5WSPuNWUK-3">
                    <mxGeometry width="50" height="50" relative="1" as="geometry">
                        <mxPoint x="230" y="530" as="sourcePoint"/>
                        <mxPoint x="280" y="480" as="targetPoint"/>
                    </mxGeometry>
                </mxCell>
                <mxCell id="My4xN4KpQax5WSPuNWUK-12" value="Admin" style="shape=umlActor;verticalLabelPosition=bottom;verticalAlign=top;html=1;" vertex="1" parent="My4xN4KpQax5WSPuNWUK-1">
                    <mxGeometry x="100" y="340" width="30" height="60" as="geometry"/>
                </mxCell>
                <mxCell id="My4xN4KpQax5WSPuNWUK-13" value="" style="endArrow=none;html=1;exitX=1;exitY=0.3333333333333333;exitDx=0;exitDy=0;exitPerimeter=0;entryX=0;entryY=1;entryDx=0;entryDy=0;" edge="1" parent="My4xN4KpQax5WSPuNWUK-1" source="My4xN4KpQax5WSPuNWUK-12" target="My4xN4KpQax5WSPuNWUK-3">
                    <mxGeometry width="50" height="50" relative="1" as="geometry">
                        <mxPoint x="140" y="210" as="sourcePoint"/>
                        <mxPoint x="261" y="277" as="targetPoint"/>
                    </mxGeometry>
                </mxCell>
            </root>
        </mxGraphModel>
    </diagram>
</mxfile>